<svg width="18" height="16" viewBox="0 0 18 16" fill="none" xmlns="http://www.w3.org/2000/svg">
<path d="M16.5326 14.8198H1.46727C1.15836 14.8198 0.896973 15.0812 0.896973 15.3901C0.896973 15.699 1.15836 15.9604 1.46727 15.9604H16.5326C16.8415 15.9604 17.1029 15.699 17.1029 15.3901C17.1029 15.0812 16.8415 14.8198 16.5326 14.8198ZM0.920735 9.82971L0.896973 12.5149C0.896973 12.6574 0.944498 12.8238 1.06331 12.9188C1.18212 13.0139 1.3247 13.0852 1.46727 13.0852L4.15242 13.0614C4.29499 13.0614 4.43757 12.9901 4.55638 12.8951L13.7762 3.67525C13.99 3.46139 13.99 3.08119 13.7762 2.86733L11.1148 0.205944C10.9009 -0.00791787 10.5207 -0.00791787 10.3069 0.205944L8.45341 2.05941L1.08707 9.42575C0.96826 9.54456 0.920735 9.68713 0.920735 9.82971ZM12.5643 3.27129L11.5188 4.31683L9.66529 2.46337L10.7108 1.41782L12.5643 3.27129ZM2.06133 10.0673L8.85737 3.27129L10.7108 5.12476L3.91479 11.9208H2.06133V10.0673Z" fill="#06004F"/>
</svg>
